<mxfile host="app.diagrams.net" modified="2021-12-21T12:24:18.025Z" agent="5.0 (Windows NT 10.0; Win64; x64) AppleWebKit/537.36 (KHTML, like Gecko) Chrome/96.0.4664.110 Safari/537.36" etag="tQdbkipDiof8ViL0M8YU" version="16.0.0" type="github">
  <diagram id="kgpKYQtTHZ0yAKxKKP6v" name="Page-1">
    <mxGraphModel dx="1384" dy="772" grid="1" gridSize="10" guides="1" tooltips="1" connect="1" arrows="1" fold="1" page="1" pageScale="1" pageWidth="850" pageHeight="1100" math="0" shadow="0">
      <root>
        <mxCell id="0" />
        <mxCell id="1" parent="0" />
        <mxCell id="S-2PhiHyGz5k_K10INvh-9" value="i &amp;gt; i + 1 ?" style="rounded=0;whiteSpace=wrap;html=1;fontSize=50;" vertex="1" parent="1">
          <mxGeometry x="139" y="350" width="490" height="140" as="geometry" />
        </mxCell>
        <mxCell id="S-2PhiHyGz5k_K10INvh-10" value="" style="endArrow=classic;html=1;rounded=0;fontSize=50;" edge="1" parent="1">
          <mxGeometry width="50" height="50" relative="1" as="geometry">
            <mxPoint x="269" y="490" as="sourcePoint" />
            <mxPoint x="269" y="630" as="targetPoint" />
          </mxGeometry>
        </mxCell>
        <mxCell id="S-2PhiHyGz5k_K10INvh-12" value="поменять местами" style="rounded=0;whiteSpace=wrap;html=1;fontSize=40;" vertex="1" parent="1">
          <mxGeometry x="149" y="630" width="240" height="120" as="geometry" />
        </mxCell>
        <mxCell id="S-2PhiHyGz5k_K10INvh-14" value="" style="endArrow=none;html=1;rounded=0;fontSize=40;exitX=1;exitY=0.5;exitDx=0;exitDy=0;" edge="1" parent="1" source="S-2PhiHyGz5k_K10INvh-12">
          <mxGeometry width="50" height="50" relative="1" as="geometry">
            <mxPoint x="449" y="550" as="sourcePoint" />
            <mxPoint x="709" y="690" as="targetPoint" />
          </mxGeometry>
        </mxCell>
        <mxCell id="S-2PhiHyGz5k_K10INvh-15" value="" style="endArrow=none;html=1;rounded=0;fontSize=40;" edge="1" parent="1">
          <mxGeometry width="50" height="50" relative="1" as="geometry">
            <mxPoint x="709" y="690" as="sourcePoint" />
            <mxPoint x="709" y="270" as="targetPoint" />
          </mxGeometry>
        </mxCell>
        <mxCell id="S-2PhiHyGz5k_K10INvh-16" value="" style="endArrow=none;html=1;rounded=0;fontSize=40;" edge="1" parent="1">
          <mxGeometry width="50" height="50" relative="1" as="geometry">
            <mxPoint x="389" y="270" as="sourcePoint" />
            <mxPoint x="709" y="270" as="targetPoint" />
          </mxGeometry>
        </mxCell>
        <mxCell id="S-2PhiHyGz5k_K10INvh-17" value="" style="endArrow=classic;html=1;rounded=0;fontSize=40;" edge="1" parent="1">
          <mxGeometry width="50" height="50" relative="1" as="geometry">
            <mxPoint x="389" y="270" as="sourcePoint" />
            <mxPoint x="389" y="350" as="targetPoint" />
          </mxGeometry>
        </mxCell>
        <mxCell id="S-2PhiHyGz5k_K10INvh-18" value="" style="endArrow=none;html=1;rounded=0;fontSize=40;entryX=0.75;entryY=1;entryDx=0;entryDy=0;" edge="1" parent="1" target="S-2PhiHyGz5k_K10INvh-9">
          <mxGeometry width="50" height="50" relative="1" as="geometry">
            <mxPoint x="509" y="690" as="sourcePoint" />
            <mxPoint x="499" y="510" as="targetPoint" />
          </mxGeometry>
        </mxCell>
        <mxCell id="S-2PhiHyGz5k_K10INvh-20" value="true" style="text;html=1;strokeColor=none;fillColor=none;align=center;verticalAlign=middle;whiteSpace=wrap;rounded=0;fontSize=40;" vertex="1" parent="1">
          <mxGeometry x="190" y="535" width="60" height="30" as="geometry" />
        </mxCell>
        <mxCell id="S-2PhiHyGz5k_K10INvh-21" value="false" style="text;html=1;strokeColor=none;fillColor=none;align=center;verticalAlign=middle;whiteSpace=wrap;rounded=0;fontSize=40;" vertex="1" parent="1">
          <mxGeometry x="540" y="535" width="60" height="30" as="geometry" />
        </mxCell>
        <mxCell id="S-2PhiHyGz5k_K10INvh-22" value="i ++" style="text;html=1;strokeColor=none;fillColor=none;align=center;verticalAlign=middle;whiteSpace=wrap;rounded=0;fontSize=40;" vertex="1" parent="1">
          <mxGeometry x="510" y="210" width="90" height="30" as="geometry" />
        </mxCell>
      </root>
    </mxGraphModel>
  </diagram>
</mxfile>
